# xmcd
#
# Track frame offsets: 
#        150
#        32730
#        60657
#        90555
#        111977
#        130937
#        149477
#        189070
#        228902
#        261717
#
# Disc length: 4049 seconds
#
# Revision: 1
# Processed by: cddbd v1.5.2PL0 Copyright (c) Steve Scherf et al.
# Submitted via: ExactAudioCopy v1.0b3
#
DISCID=8c0fcf0a
DTITLE=Grand Central - Sax Storm
DYEAR=1992
DGENRE=Jazz
TTITLE0=Akili
TTITLE1=Solar
TTITLE2=Imperfect Way
TTITLE3=You Got To My Head
TTITLE4=The Awakening
TTITLE5=We'll Be Together Again
TTITLE6=Domo Crocodile
TTITLE7=All The Things You Are
TTITLE8=Body And Soul
TTITLE9=Blues Up And Down
EXTD=YEAR: 1992
EXTT0=
EXTT1=
EXTT2=
EXTT3=
EXTT4=
EXTT5=
EXTT6=
EXTT7=
EXTT8=
EXTT9=
PLAYORDER=
